PathFileType	4	(X/Y/Z)	./resultDataOpenSim/trcMotMarkerGrf/sub09/qtm-05-01.trc
DataRate	CameraRate	NumFrames	NumMarkers	Units	OrigDataRate	OrigDataStartFrame	OrigNumFrames
250.000000	250.000000	6	24	m	250.000000	456	521
Frame#	Time	L.Toe.Tip			R.Toe.Tip			L.Ankle.Lat			R.Ankle.Lat			L.Ankle.Med			R.Ankle.Med			L.Heel			R.Heel			L.Knee.Lat			R.Knee.Lat			L.Knee.Med			R.Knee.Med			L.Thigh.Upper			R.Thigh.Upper			L.ASIS			R.ASIS			V.Sacral			L.Acromium			R.Acromium			C7			L.Elbow			R.Elbow			L.Wrist.Lat			R.Wrist.Lat
		X1	Y1	Z1	X2	Y2	Z2	X3	Y3	Z3	X4	Y4	Z4	X5	Y5	Z5	X6	Y6	Z6	X7	Y7	Z7	X8	Y8	Z8	X9	Y9	Z9	X10	Y10	Z10	X11	Y11	Z11	X12	Y12	Z12	X13	Y13	Z13	X14	Y14	Z14	X15	Y15	Z15	X16	Y16	Z16	X17	Y17	Z17	X18	Y18	Z18	X19	Y19	Z19	X20	Y20	Z20	X21	Y21	Z21	X22	Y22	Z22	X23	Y23	Z23	X24	Y24	Z24

456	1.82	1.722054	0.082381818	0.0248502	1.0283006	0.040956617	0.1231941	1.5673946	0.078710939	-0.015580159	0.91157751	0.10730533	0.17224587	1.5861616	0.099580331	0.078913725	0.92677031	0.14122977	0.079964989	1.5110733	0.02528453	0.030668648	0.82979526	0.11672409	0.11959004	1.4574383	0.47938998	-0.053050165	1.1284036	0.50014683	0.24538238	1.458785	0.47274432	0.073416165	1.1563955	0.4785815	0.10493152	1.2894261	0.86207575	-0.093273045	1.2547675	0.87910326	0.27644324	1.3573605	0.95376043	-0.029152763	1.3579595	0.95865288	0.21188931	1.1855054	1.00573	0.079455974	1.3182065	1.4048881	-0.087765013	1.3072775	1.4246672	0.24400837	1.242659	1.4606322	0.076658235	1.1770508	1.0621854	-0.13366973	1.1856909	1.0734394	0.33511483	1.2940962	0.8340691	-0.19153566	1.3866602	0.88047651	0.33052672
457	1.824	1.7250108	0.077348735	0.026889291	1.0286668	0.041145193	0.12345467	1.5702584	0.078337644	-0.015249501	0.91345572	0.10936387	0.17321991	1.5886357	0.098532523	0.079478874	0.92893589	0.1428836	0.080855248	1.5122347	0.026587901	0.030627556	0.83171774	0.1199278	0.12054087	1.4636488	0.47945498	-0.052995391	1.1368724	0.49825298	0.24514666	1.4645171	0.47264873	0.073554503	1.1625907	0.47701634	0.10476209	1.2950055	0.86193427	-0.094108158	1.2606662	0.87780753	0.27575359	1.3628739	0.9535444	-0.029669316	1.3638581	0.95755514	0.21135905	1.1910351	1.0052332	0.079130865	1.3236479	1.4041053	-0.088193752	1.3124507	1.4236869	0.2437401	1.2479622	1.4600273	0.076249296	1.1828891	1.06114	-0.13398181	1.1908877	1.0723585	0.33433308	1.3000699	0.83309934	-0.19166692	1.3910352	0.8787546	0.33073723
458	1.828	1.7277864	0.073005894	0.028706724	1.0290641	0.041333637	0.12379578	1.5731585	0.078024181	-0.015045075	0.91419381	0.11135017	0.17389201	1.591134	0.097636119	0.079868458	0.93125101	0.14463941	0.081787904	1.5135749	0.027809633	0.030356597	0.83382618	0.12330888	0.12158257	1.4699806	0.47988419	-0.053022819	1.1469078	0.49592595	0.24459225	1.4700799	0.47289199	0.073654039	1.1690646	0.47544209	0.10457008	1.3005467	0.86192778	-0.094950619	1.2665528	0.87646703	0.27511659	1.3683228	0.95348928	-0.030248851	1.3697236	0.95650358	0.21080931	1.1965135	1.004783	0.078899956	1.3291109	1.4033912	-0.088638019	1.3176364	1.4227685	0.24348343	1.2533414	1.4595528	0.075813472	1.1887927	1.0601182	-0.13429431	1.1961717	1.0713328	0.3335252	1.3060871	0.83215577	-0.19177672	1.3953359	0.87703615	0.33098959
459	1.832	1.730268	0.069123948	0.030335745	1.0294989	0.041511241	0.12422686	1.5759908	0.077729484	-0.014937985	0.91380693	0.11327233	0.17425363	1.5936321	0.096906296	0.080077459	0.93373918	0.14650397	0.08276142	1.514992	0.028868651	0.029865516	0.83614809	0.12688311	0.12266539	1.476446	0.48061446	-0.053122986	1.1588385	0.49301352	0.24346551	1.4755469	0.47352287	0.073687519	1.1761893	0.47380996	0.10462374	1.3060635	0.86207286	-0.095788855	1.2724745	0.87509608	0.27452847	1.3737147	0.95358909	-0.030870604	1.3755389	0.95551747	0.2102455	1.2019402	1.0043594	0.078745006	1.3345906	1.4027572	-0.0890845	1.3228193	1.4219355	0.24323978	1.2587713	1.459137	0.075343117	1.1947624	1.059141	-0.13461515	1.2014692	1.0703634	0.33268808	1.3121472	0.83125105	-0.19186343	1.3995803	0.87533604	0.33126939
460	1.836	1.7324378	0.065362508	0.031800598	1.0299937	0.041697559	0.12466571	1.5786639	0.077451624	-0.014921762	0.91342926	0.11530477	0.17460037	1.59608	0.09631585	0.080111325	0.93643334	0.14847915	0.083769729	1.51637	0.029780243	0.029194633	0.8387204	0.1306596	0.12372023	1.4830696	0.48154648	-0.053280438	1.1734889	0.48925374	0.24145197	1.4810105	0.4745152	0.073625498	1.183937	0.47211709	0.10496943	1.3115839	0.86237125	-0.096601208	1.2783977	0.87372269	0.27397987	1.3790638	0.95383849	-0.031510978	1.3812978	0.95460923	0.20966747	1.2073302	1.0039551	0.07866741	1.3400785	1.4022132	-0.089522726	1.3280067	1.4212113	0.24300036	1.2642489	1.4587216	0.074849503	1.200791	1.0582359	-0.13495881	1.2067218	1.0694435	0.33181981	1.3182438	0.83039893	-0.19192207	1.4037993	0.87366668	0.3315532
461	1.84	1.7342887	0.061478939	0.033087471	1.0305711	0.041932621	0.12496984	1.5811035	0.077175017	-0.015011137	0.91508642	0.11775688	0.17547797	1.5983349	0.095765861	0.07999795	0.9393773	0.15054803	0.084805748	1.5175999	0.030632373	0.028346782	0.84157918	0.13463775	0.12469262	1.4899047	0.48258867	-0.053467388	1.1905181	0.48481845	0.23869481	1.4865847	0.47579043	0.073448506	1.1918419	0.47043818	0.10536204	1.3171542	0.86281168	-0.097372978	1.2842169	0.87236629	0.27347743	1.3843989	0.95422448	-0.032158862	1.3870012	0.95377968	0.20907582	1.2127068	1.0035552	0.078672789	1.3455652	1.4017685	-0.089942472	1.3332168	1.4206036	0.24274998	1.2697582	1.4583067	0.074354559	1.2068664	1.0574316	-0.13532914	1.2118876	1.0685786	0.33091417	1.3243688	0.82961724	-0.19194958	1.4080062	0.87203943	0.33182138
